<?xml version="1.0" standalone="no"?><!DOCTYPE svg PUBLIC "-//W3C//DTD SVG 1.1//EN" "http://www.w3.org/Graphics/SVG/1.1/DTD/svg11.dtd"><svg t="1570869699505" class="icon" viewBox="0 0 1024 1024" version="1.1" xmlns="http://www.w3.org/2000/svg" p-id="4218" xmlns:xlink="http://www.w3.org/1999/xlink" width="200" height="200"><defs><style type="text/css"></style></defs><path d="M912 650.1v157.1c0 6.6-3 11-8.9 13.4-2.3 0.6-4.1 0.9-5.4 0.9-3.6 0-7-1.3-10.2-4L846 776c-35.4 42.5-82.8 76.2-142.2 101.1-59.4 24.8-123.4 37.3-191.8 37.3S379.6 902 320.3 877.1 213.5 818.6 178.1 776l-41.6 41.5c-2.7 2.7-6.1 4-10.2 4-1.2 0-3-0.3-5.4-0.9-6-2.3-8.9-6.9-8.9-13.4V650.1c0-4.1 1.3-7.6 4-10.2 2.7-2.7 6.1-4 10.2-4h157.2c6.6 0 11 3 13.4 8.9 2.3 5.6 1.3 10.9-3.1 15.6L249.1 705c19.9 27 48.2 50 84.6 68.5 36.4 18.6 76.9 30.9 121.2 36.8V521.5h-85.7c-7.7 0-14.5-2.8-20.1-8.5-5.6-5.6-8.5-12.3-8.5-20.1v-57.2c0-7.7 2.8-14.5 8.5-20.1 5.6-5.6 12.3-8.5 20.1-8.5H455v-72.8c-17.3-10.1-31.1-23.8-41.5-41.3-10.4-17.4-15.6-36.5-15.6-57.4 0-31.5 11.2-58.5 33.5-80.8 22.3-22.3 49.3-33.5 80.8-33.5s58.5 11.2 80.8 33.5 33.5 49.3 33.5 80.8c0 20.8-5.2 40-15.6 57.4s-24.2 31.2-41.5 41.3v72.8h85.7c7.7 0 14.5 2.8 20.1 8.5 5.6 5.6 8.5 12.4 8.5 20.1v57.2c0 7.7-2.8 14.5-8.5 20.1-5.6 5.6-12.4 8.5-20.1 8.5h-85.7v288.8c44.3-5.9 84.8-18.2 121.2-36.8s64.7-41.4 84.6-68.5l-44.6-44.6c-4.5-4.8-5.5-10-3.1-15.6 2.3-5.9 6.9-8.9 13.4-8.9h157.2c4.1 0 7.6 1.3 10.2 4 2.4 2.6 3.7 6 3.7 10.2zM532.1 255.8c5.6-5.6 8.5-12.3 8.5-20.1 0-7.7-2.8-14.5-8.5-20.1s-12.4-8.5-20.1-8.5c-7.7 0-14.5 2.8-20.1 8.5-5.6 5.6-8.5 12.4-8.5 20.1s2.8 14.5 8.5 20.1c5.6 5.6 12.3 8.5 20.1 8.5 7.7 0.1 14.5-2.7 20.1-8.5z" p-id="4219"></path></svg>